<svg xmlns="http://www.w3.org/2000/svg" xmlns:svg="http://www.w3.org/2000/svg" id="svg1" width="24" height="24" fill="none" version="1.1" viewBox="0 0 24 24"><path id="path1" fill="#212121" d="m 19.947024,13.17933 a 0.75,0.75 0 0 0 -0.907212,0.549312 7.251,7.251 0 0 1 -13.334866,1.873667 l 0.8908023,0.350894 a 0.75,0.75 0 0 0 0.6494514,-1.347747 l -0.100442,-0.04793 -2.6316174,-1.036623 a 0.75,0.75 0 0 0 -0.9241627,0.322228 l -0.047921,0.100457 -1.0366214,2.631619 a 0.75,0.75 0 0 0 1.3468323,0.649854 l 0.048321,-0.09951 0.3887326,-0.986859 A 8.75,8.75 0 0 0 20.494492,14.087329 0.75,0.75 0 0 0 19.946102,13.179722 Z M 21.068469,6.4543893 A 0.75,0.75 0 0 0 20.096388,6.8770607 L 19.707652,7.863919 A 8.75,8.75 0 0 0 3.5868012,9.5848274 0.75043107,0.75043107 0 1 0 5.0290446,10.000183 7.251,7.251 0 0 1 18.290631,8.3993655 l -0.8904,-0.3499798 a 0.75,0.75 0 1 0 -0.549014,1.3956769 l 2.631617,1.0366214 a 0.75,0.75 0 0 0 0.972088,-0.422667 L 21.491544,7.4273949 A 0.75,0.75 0 0 0 21.068874,6.455308 Z"/></svg>