<svg xmlns="http://www.w3.org/2000/svg" xmlns:svg="http://www.w3.org/2000/svg" id="svg11" width="64" height="64" fill="none" version="1.1" viewBox="0 0 64 64"><g id="g11" transform="translate(0.5,0.5)"><path id="path1" fill="url(#paint0_radial_519_6)" d="M 4,6.2 C 4,4.98497 4.98497,4 6.2,4 h 22 c 1.215,0 2.2,0.98497 2.2,2.2 v 22 c 0,1.215 -0.985,2.2 -2.2,2.2 H 6.2 C 4.98497,30.4 4,29.415 4,28.2 Z" style="fill:url(#paint0_radial_519_6)"/><path id="path2" fill="url(#paint1_radial_519_6)" d="M 32.6,6.2 C 32.6,4.98497 33.585,4 34.8,4 h 22 C 58.015,4 59,4.98497 59,6.2 v 22 c 0,1.215 -0.985,2.2 -2.2,2.2 h -22 c -1.215,0 -2.2,-0.985 -2.2,-2.2 z" style="fill:url(#paint1_radial_519_6)"/><path id="path3" fill="url(#paint2_radial_519_6)" d="m 32.6,34.8 c 0,-1.215 0.985,-2.2 2.2,-2.2 h 22 c 1.215,0 2.2,0.985 2.2,2.2 v 22 c 0,1.215 -0.985,2.2 -2.2,2.2 h -22 c -1.215,0 -2.2,-0.985 -2.2,-2.2 z" style="fill:url(#paint2_radial_519_6)"/><path id="path4" fill="url(#paint3_radial_519_6)" d="m 4,34.8 c 0,-1.215 0.98497,-2.2 2.2,-2.2 h 22 c 1.215,0 2.2,0.985 2.2,2.2 v 22 c 0,1.215 -0.985,2.2 -2.2,2.2 H 6.2 C 4.98497,59 4,58.015 4,56.8 Z" style="fill:url(#paint3_radial_519_6)"/></g><defs id="defs11"><radialGradient id="paint0_radial_519_6" cx="0" cy="0" r="1" gradientTransform="matrix(54.999968,54.999968,-54.999968,54.999968,4,4)" gradientUnits="userSpaceOnUse"><stop id="stop4" stop-color="#81DFFF"/><stop id="stop5" offset="1" stop-color="#0A99F9"/></radialGradient><radialGradient id="paint1_radial_519_6" cx="0" cy="0" r="1" gradientTransform="matrix(54.999968,54.999968,-54.999968,54.999968,4,4)" gradientUnits="userSpaceOnUse"><stop id="stop6" stop-color="#81DFFF"/><stop id="stop7" offset="1" stop-color="#0A99F9"/></radialGradient><radialGradient id="paint2_radial_519_6" cx="0" cy="0" r="1" gradientTransform="matrix(54.999968,54.999968,-54.999968,54.999968,4,4)" gradientUnits="userSpaceOnUse"><stop id="stop8" stop-color="#81DFFF"/><stop id="stop9" offset="1" stop-color="#0A99F9"/></radialGradient><radialGradient id="paint3_radial_519_6" cx="0" cy="0" r="1" gradientTransform="matrix(54.999968,54.999968,-54.999968,54.999968,4,4)" gradientUnits="userSpaceOnUse"><stop id="stop10" stop-color="#81DFFF"/><stop id="stop11" offset="1" stop-color="#0A99F9"/></radialGradient></defs></svg>