<svg xmlns="http://www.w3.org/2000/svg" xmlns:svg="http://www.w3.org/2000/svg" xmlns:xlink="http://www.w3.org/1999/xlink" id="svg2424" width="20" height="20" version="1.0" viewBox="0 0 166.187 166.187"><defs id="defs2426"><linearGradient id="path1082_2_" x1="112.499" x2="112.499" y1="6.137" y2="129.347" gradientTransform="translate(287,-83)" gradientUnits="userSpaceOnUse"><stop id="stop193" offset="0" style="stop-color:#fff;stop-opacity:0"/><stop id="stop195" offset="1" style="stop-color:#fff;stop-opacity:.27450982"/><midPointStop style="stop-color:#fff" id="midPointStop197" offset="0"/><midPointStop style="stop-color:#fff" id="midPointStop199" offset=".5"/><midPointStop style="stop-color:#000" id="midPointStop201" offset="1"/></linearGradient><linearGradient id="linearGradient2544" x1="541.335" x2="606.912" y1="104.507" y2="303.14" gradientTransform="matrix(-0.3937741,0,0,0.393752,357.51969,122.00151)" gradientUnits="userSpaceOnUse" xlink:href="#path1082_2_"/><linearGradient id="linearGradient3388"><stop id="stop3390" offset="0" style="stop-color:#000;stop-opacity:0"/><stop id="stop3392" offset="1" style="stop-color:#000;stop-opacity:.37113401"/></linearGradient><linearGradient id="linearGradient4416" x1="490.723" x2="490.723" y1="237.724" y2="183.964" gradientTransform="matrix(0.749107,0,0,0.749107,-35.459862,91.44108)" gradientUnits="userSpaceOnUse" xlink:href="#linearGradient3388"/></defs><g id="layer1" transform="translate(-57.527313,-146.42741)"><g id="g2424" transform="matrix(0.8746356,0,0,0.8746356,14.730518,23.408954)" style="fill:#000"><path id="path2518" d="m 143.91698,140.65081 c -8.45709,20.73453 -13.55799,34.29734 -22.97385,54.41552 5.7731,6.11948 12.85931,13.24593 24.36729,21.29458 -12.37221,-5.09109 -20.81157,-10.20242 -27.11844,-15.50646 -12.0505,25.14523 -30.930177,60.96349 -69.243121,129.80406 30.112687,-17.38458 53.455511,-28.10236 75.209891,-32.19198 -0.93414,-4.01773 -1.46524,-8.36369 -1.42916,-12.89823 l 0.0357,-0.96469 c 0.47781,-19.2924 10.51371,-34.12825 22.40218,-33.12093 11.88848,1.00732 21.12927,17.4729 20.65146,36.76531 -0.0899,3.63022 -0.49934,7.12245 -1.21479,10.36146 21.51819,4.20934 44.61141,14.89968 74.31666,32.04906 -5.85729,-10.78369 -11.08544,-20.5044 -16.07812,-29.7624 -7.86429,-6.09535 -16.06714,-14.02847 -32.79938,-22.61656 11.50078,2.98839 19.73519,6.43619 26.15375,10.29 -50.76203,-94.51003 -54.87267,-107.06846 -72.2801,-147.91874 z" style="fill:#000;fill-opacity:1;fill-rule:evenodd;stroke:none;stroke-width:1.14333"/></g></g></svg>