<svg xmlns="http://www.w3.org/2000/svg" xmlns:svg="http://www.w3.org/2000/svg" xmlns:xlink="http://www.w3.org/1999/xlink" id="SVGRoot" width="20" height="20" version="1.1" viewBox="0 0 17.921 17.921"><defs id="defs6"><linearGradient id="linearGradient939" x1="237.19" x2="237.07" y1="296.2" y2="304.08" gradientTransform="matrix(0.04476,0,0,0.044679,-8.5042241,-4.351186)" gradientUnits="userSpaceOnUse" xlink:href="#linearGradient937"/><linearGradient id="linearGradient937"><stop id="stop1" offset="0" stop-color="#001313"/><stop id="stop2" offset="1" stop-color="#001313" stop-opacity="0"/></linearGradient><linearGradient id="linearGradient5185" x1="994.81" x2="982.34" y1="1533.3" y2="1556.8" gradientTransform="matrix(0.084141,0,0,0.083989,-76.242924,-126.39098)" gradientUnits="userSpaceOnUse" xlink:href="#linearGradient4353"/><linearGradient id="linearGradient4353"><stop id="stop3" offset="0" stop-color="#020202"/><stop id="stop4" offset="1" stop-color="#020202" stop-opacity="0"/></linearGradient><linearGradient id="linearGradient9102" x1="1022.5" x2="1018.6" y1="1582.4" y2="1575.6" gradientTransform="matrix(0.086381,0,0,0.081808,-79.103924,-124.69099)" gradientUnits="userSpaceOnUse" xlink:href="#linearGradient4353"/><linearGradient id="linearGradient11890" x1="940.43" x2="930.59" y1="1612.5" y2="1594.5" gradientTransform="matrix(0.084141,0,0,0.083989,-76.242924,-126.39098)" gradientUnits="userSpaceOnUse" xlink:href="#linearGradient4353"/><linearGradient id="linearGradient11670" x1="965.6" x2="951.66" y1="1571.4" y2="1571.3" gradientTransform="matrix(0.084141,0,0,0.083989,-76.242924,-126.39098)" gradientUnits="userSpaceOnUse" xlink:href="#linearGradient4353"/><linearGradient id="linearGradient13770" x1="946.23" x2="961.37" y1="1655.9" y2="1655.8" gradientTransform="matrix(0.084141,0,0,0.083989,-76.242924,-126.39098)" gradientUnits="userSpaceOnUse" xlink:href="#linearGradient4353"/><linearGradient id="linearGradient2816" x1="366.15" x2="350.92" y1="427.32" y2="419.64" gradientTransform="matrix(0.04476,0,0,0.044679,-10.832924,-4.155886)" gradientUnits="userSpaceOnUse" xlink:href="#linearGradient937"/><linearGradient id="linearGradient12421" x1="936.34" x2="933.38" y1="1628.8" y2="1623" gradientTransform="matrix(0.084141,0,0,0.083989,-76.242924,-126.39098)" gradientUnits="userSpaceOnUse" xlink:href="#linearGradient4353"/><linearGradient id="linearGradient13391" x1="950.33" x2="941.97" y1="1618.6" y2="1645.8" gradientTransform="matrix(0.084141,0,0,0.083989,-76.242924,-126.39098)" gradientUnits="userSpaceOnUse" xlink:href="#linearGradient4353"/><linearGradient id="linearGradient13599" x1="1008.2" x2="1015.7" y1="1681.3" y2="1668.4" gradientTransform="matrix(0.084141,0,0,0.083989,-77.884838,-124.43841)" gradientUnits="userSpaceOnUse" xlink:href="#linearGradient4353"/><linearGradient id="linearGradient18175" x1="1148.3" x2="1145.4" y1="1585.5" y2="1630" gradientTransform="matrix(0.34992,0,0,0.34992,-282.87,-491.67)" gradientUnits="userSpaceOnUse" xlink:href="#linearGradient18299"/><linearGradient id="linearGradient18299"><stop id="stop5" offset="0" stop-color="#008066" stop-opacity="0"/><stop id="stop6" offset="1" stop-color="#0fc"/></linearGradient><linearGradient id="linearGradient18632" x1="1148.3" x2="1145.4" y1="1585.5" y2="1630" gradientTransform="matrix(0.26565,0,0,0.26565,-211.15,-375.49)" gradientUnits="userSpaceOnUse" xlink:href="#linearGradient18299"/><linearGradient id="linearGradient18659" x1="1148.3" x2="1145.4" y1="1585.5" y2="1630" gradientTransform="matrix(0.13679,0,0,0.13679,-53.624,-195.03)" gradientUnits="userSpaceOnUse" xlink:href="#linearGradient18299"/><linearGradient id="linearGradient3254" x1="348.05" x2="361.21" y1="194.78" y2="187.24" gradientTransform="matrix(0.04476,0,0,0.044679,-10.832924,-4.155886)" gradientUnits="userSpaceOnUse" xlink:href="#linearGradient937"/></defs><circle id="circle6" cx="87.45" cy="87.45" r="87.45" stroke-width=".28" opacity="0"/><path id="path7" fill="#0a8" d="m 4.0610759,2.168314 6.5887001,3.6879 2.1127,-3.6528 z" style="fill:#000"/><path id="path8" fill="#0a8" d="m 6.1499759,12.423014 -1.9125,3.7456 h 8.5747001 l 2.1664,-3.7456 z" style="fill:#7a7a7a;fill-opacity:.68506807"/><path id="path9" fill="#0cf" d="m 4.0610759,2.168314 6.5887001,3.6879 H 6.1237759 l -1.8859,3.2605 1.9121,3.306 -1.9125,3.7456 -4.13689997,-7.1525 3.96049997,-6.8475" style="fill:#7a7a7a;fill-opacity:.69262218"/><path id="path12" fill="url(#linearGradient9102)" d="m 6.0909759,5.821714 6.7111001,-3.7832 -2.169,3.5579 z" style="fill:url(#linearGradient9102)"/><path id="path13" fill="#0a8" d="m 6.1236759,5.856214 6.6388001,-3.6528 -2.1127,3.6528 z" style="fill:#000"/><path id="path14" fill="#0a8" d="m 0.10057593,9.015814 6.02309997,-3.1596 -1.8859,3.2605 z" style="fill:#1a1a1a"/><path id="path16" fill="#0a8" d="m 6.1236759,5.856214 -2.0626,-3.6879 0.17673,6.9484 z" style="fill:#1a1a1a"/><path id="path19" fill="#0a8" d="m 4.2378759,9.116714 -3.1586,1.5811 3.1583,5.4705 z" style="fill:#1a1a1a"/><path id="path23" fill="#0a8" d="m 1.0792259,10.698014 5.0708,1.7248 -1.9121,-3.306 z" style="fill:#1a1a1a"/><g id="g26" transform="matrix(0.14699,0,0,0.14672,-0.75949407,-0.14715599)" style="fill:#1a1a1a"><circle id="circle25" cx="117.95" cy="75.441" r="9.689" fill="#0cf" style="fill:#1a1a1a"/><circle id="circle26" cx="118.08" cy="75.341" r="9.689" fill="url(#linearGradient18175)" style="fill:#1a1a1a"/></g><g id="g28" transform="matrix(0.14699,0,0,0.14672,-0.11248407,-0.47061599)" style="fill:#1a1a1a"><circle id="circle27" cx="93.138" cy="55.045" r="7.356" fill="#0cf" style="fill:#1a1a1a"/><circle id="circle28" cx="93.239" cy="54.969" r="7.356" fill="url(#linearGradient18632)" style="fill:#1a1a1a"/></g><g id="g30" transform="matrix(0.14699,0,0,0.14672,-0.08243407,-0.04714599)" style="fill:#000"><circle id="circle29" cx="103.06" cy="26.657" r="3.788" fill="#0cf" style="fill:#000"/><circle id="circle30" cx="103.11" cy="26.618" r="3.788" fill="url(#linearGradient18659)" style="fill:#000"/></g><path id="path30" fill="url(#linearGradient3254)" d="m 6.1236759,5.856214 -2.0626,-3.6879 0.52544,-0.0074 1.9387,3.4465 z" style="fill:url(#linearGradient3254)"/><path id="path17" fill="#0cf" d="M 12.808567,16.168211 6.1524738,12.428132 4.2457352,16.165572 Z" style="fill:#1a1a1a;fill-opacity:1"/></svg>