<svg xmlns="http://www.w3.org/2000/svg" xmlns:svg="http://www.w3.org/2000/svg" id="svg8" width="20mm" height="20mm" version="1.1" viewBox="0 0 48.231 48.231"><title id="title1">EndeavourOS Logo</title><metadata id="metadata1"/><g id="g8" transform="translate(-66.790568,-123.01834)"><g id="g7" transform="translate(76.2,-12.7)"><g id="g6" transform="matrix(1.47,0,0,1.47,-519,105)"><g id="g5" transform="matrix(0.963,0,0,0.983,13.5,0.76)"><g id="g3" transform="matrix(0.678,0,0,0.678,452,49.2)"><g id="g9" transform="translate(6.8384014e-4,3.6851185)"><path style="fill:#333;fill-opacity:.7;stroke-width:.585" id="path1" d="m -127,-42.3 c 4.57,6.45 23.8,31.4 10.7,36.6 -6.12,2.81 -34,-1.65 -33.6,-0.921 -2,3.28 -3.59,5.92 -3.59,5.92 0,0 21.5,0.967 38.1,-1.27 23.7,-3.18 -4.88,-33.5 -11.6,-40.3 z"/><path style="fill:#333;fill-opacity:.7;stroke-width:.585" id="path2" d="m -127,-42.3 c -1.52,0.209 -29.4,34.5 -29.4,34.5 0,0 2.01,0.57 6.58,1.23 1.48,-1.15 22.3,-36.2 22.9,-35.7 -0.0107,-0.0141 -0.028,-0.0193 -0.0522,-0.016 z"/><path style="fill:#1a1a1a;stroke-width:.585" id="path3" d="m -127,-42.3 c -0.96,-0.156 -22.9,35.7 -22.9,35.7 0,0 19.9,2.1 28.1,1.96 23.1,-0.39 0.176,-30.6 -5.16,-37.7 -0.007,-0.007 -0.0151,-0.0108 -0.0248,-0.0124 z"/></g></g></g></g></g></g></svg>