<svg xmlns="http://www.w3.org/2000/svg" xmlns:svg="http://www.w3.org/2000/svg" id="svg1" width="20" height="20" role="img" version="1.1" viewBox="0 0 24 24"><title id="title1">Flatpak</title><path id="path1" d="m 12.000004,7.3336774e-5 c -0.556,0 -1.110999,0.143999993226 -1.609999,0.431999993226 L 2.7870046,4.8220733 a 3.217,3.217 0 0 0 -1.61,2.788 v 8.7799997 c 0,1.151 0.612,2.212 1.61,2.788 l 7.6030004,4.39 a 3.217,3.217 0 0 0 3.219999,0 l 7.603,-4.39 a 3.217,3.217 0 0 0 1.61,-2.788 V 7.6100733 a 3.217,3.217 0 0 0 -1.61,-2.788 l -7.603,-4.38999997 a 3.218,3.218 0 0 0 -1.61,-0.431999993226 z m 0,2.357999963226 c 0.15,0 0.299,0.039 0.431,0.115 l 7.604,4.39 c 0.132,0.077 0.24,0.187 0.315,0.316 l -8.35,4.8209997 v 9.642 a 0.863,0.863 0 0 1 -0.431,-0.116 l -7.6039994,-4.39 a 0.866,0.866 0 0 1 -0.431,-0.746 V 7.6100733 c 0,-0.153 0.041,-0.302 0.116,-0.43 l 8.3499994,4.8199997 z"/><metadata id="metadata1"/></svg>