<svg xmlns="http://www.w3.org/2000/svg" xmlns:svg="http://www.w3.org/2000/svg" id="svg8" width="20" height="20" version="1.1" viewBox="0 0 512 512.007"><g id="g8" fill-rule="evenodd" transform="matrix(1.2756532,0,0,-1.2756532,9.0810546e-6,478.03773)" style="fill:#000"><path id="path1" fill="#5277c3" d="m 122.453,169.761 97.758,-169.34 -44.926,-0.422 -26.101,45.496 -26.286,-45.25 -22.32,0.008 -11.433,19.75 37.449,64.394 -26.582,46.258 z" style="fill:#000"/><path id="path2" fill="#7ebae4" d="M 157.738,239.515 59.961,70.183 37.133,108.882 63.484,154.229 11.152,154.366 0,173.702 l 11.391,19.777 74.488,-0.234 26.769,46.152 z" style="fill:#000"/><path id="path3" fill="#7ebae4" d="M 165.238,104.155 360.77,104.143 338.672,65.026 286.223,65.171 312.27,19.784 301.102,0.456 278.277,0.429 241.238,65.058 187.883,65.167 Z" style="fill:#000"/><path id="path4" fill="#7ebae4" d="m 279.043,178.35 -97.758,169.34 44.926,0.422 26.101,-45.496 26.286,45.254 22.32,-0.008 11.434,-19.754 -37.45,-64.39 26.582,-46.262 z" style="fill:#000"/><g id="g7" fill="#5277c3" style="fill:#000"><path id="path5" d="m 122.453,169.761 97.758,-169.34 -44.926,-0.422 -26.101,45.496 -26.286,-45.25 -22.32,0.008 -11.433,19.75 37.449,64.394 -26.582,46.258 z" style="fill:#000"/><path id="path6" d="m 236,244.386 -195.535,0.011 22.101,39.118 52.45,-0.149 -26.047,45.391 11.168,19.328 22.82,0.023 37.043,-64.625 53.352,-0.109 z" style="fill:#000"/><path id="path7" d="m 243.625,108.636 97.777,169.328 22.825,-38.696 -26.348,-45.351 52.332,-0.137 11.152,-19.336 -11.39,-19.777 -74.489,0.238 -26.769,-46.152 z" style="fill:#000"/></g></g></svg>